<svg xmlns="http://www.w3.org/2000/svg" width="430" height="430" fill="none" viewBox="0 0 430 430"><metadata><rdf:RDF xmlns:rdf="http://www.w3.org/1999/02/22-rdf-syntax-ns#" xmlns:dc="http://purl.org/dc/elements/1.1/"><rdf:Description><dc:creator>RealFaviconGenerator</dc:creator><dc:source>https://realfavicongenerator.net</dc:source></rdf:Description></rdf:RDF></metadata><path fill="url(#luj73D_p-ta)" fill-rule="evenodd" d="M70 70c0-22.644 18.356-41 41-41s41 18.356 41 41v183.75c0 30.514 24.736 55.25 55.25 55.25h35c30.514 0 55.25-24.736 55.25-55.25v-17.5c0-30.514-24.736-55.25-55.25-55.25h-17.5c-22.644 0-41-18.356-41-41s18.356-41 41-41h17.5c75.801 0 137.25 61.449 137.25 137.25v17.5c0 75.801-61.449 137.25-137.25 137.25h-35C131.449 391 70 329.551 70 253.75zm41-29c-16.016 0-29 12.984-29 29v183.75C82 322.924 138.076 379 207.25 379h35c69.174 0 125.25-56.076 125.25-125.25v-17.5c0-69.174-56.076-125.25-125.25-125.25h-17.5c-16.016 0-29 12.984-29 29s12.984 29 29 29h17.5c37.141 0 67.25 30.109 67.25 67.25v17.5c0 37.141-30.109 67.25-67.25 67.25h-35c-37.141 0-67.25-30.109-67.25-67.25V70c0-16.016-12.984-29-29-29" clip-rule="evenodd"></path><defs><linearGradient id="luj73D_p-ta" x1="171.245" x2="365.662" y1="109.392" y2="296.62" gradientUnits="userSpaceOnUse"><stop stop-color="#cb5eee"></stop><stop offset="1" stop-color="#4be1ec"></stop></linearGradient></defs></svg>